<mxfile host="65bd71144e">
    <diagram id="wGuppr9kJ32sMvLZwhZV" name="Page-1">
        <mxGraphModel dx="1756" dy="1743" grid="1" gridSize="10" guides="1" tooltips="1" connect="1" arrows="1" fold="1" page="1" pageScale="1" pageWidth="850" pageHeight="1100" math="0" shadow="0">
            <root>
                <mxCell id="0"/>
                <mxCell id="1" parent="0"/>
                <mxCell id="8" value="&lt;a href=&quot;https://nima101.github.io/io_multiplexing&quot;&gt;&lt;font style=&quot;font-size: 19px;&quot;&gt;poll vs select vs epoll vs kqueue&lt;/font&gt;&lt;/a&gt;" style="rounded=1;whiteSpace=wrap;html=1;" parent="1" vertex="1">
                    <mxGeometry x="90" y="130" width="300" height="60" as="geometry"/>
                </mxCell>
                <mxCell id="9" value="&lt;a href=&quot;https://www.geeksforgeeks.org/socket-programming-cc/&quot;&gt;&lt;font style=&quot;font-size: 17px;&quot;&gt;Sockets&lt;/font&gt;&lt;/a&gt;" style="rounded=1;whiteSpace=wrap;html=1;" parent="1" vertex="1">
                    <mxGeometry x="610" y="120" width="120" height="60" as="geometry"/>
                </mxCell>
                <mxCell id="10" value="RTFM" style="ellipse;whiteSpace=wrap;html=1;fontSize=15;" parent="1" vertex="1">
                    <mxGeometry x="380" y="270" width="120" height="80" as="geometry"/>
                </mxCell>
                <mxCell id="11" value="" style="endArrow=classic;html=1;fontSize=15;" parent="1" source="10" target="8" edge="1">
                    <mxGeometry width="50" height="50" relative="1" as="geometry">
                        <mxPoint x="380" y="400" as="sourcePoint"/>
                        <mxPoint x="430" y="350" as="targetPoint"/>
                    </mxGeometry>
                </mxCell>
                <mxCell id="12" value="" style="endArrow=classic;html=1;fontSize=15;" parent="1" source="10" target="9" edge="1">
                    <mxGeometry width="50" height="50" relative="1" as="geometry">
                        <mxPoint x="470" y="280" as="sourcePoint"/>
                        <mxPoint x="520" y="230" as="targetPoint"/>
                    </mxGeometry>
                </mxCell>
                <mxCell id="15" value="" style="endArrow=classic;html=1;fontColor=#FFFFFF;" parent="1" source="10" target="16" edge="1">
                    <mxGeometry width="50" height="50" relative="1" as="geometry">
                        <mxPoint x="600" y="350" as="sourcePoint"/>
                        <mxPoint x="630" y="323.33333333333337" as="targetPoint"/>
                        <Array as="points"/>
                    </mxGeometry>
                </mxCell>
                <mxCell id="16" value="&lt;a href=&quot;https://modern.ircdocs.horse/&quot; style=&quot;font-size: 16px;&quot;&gt;Modern IRC Client Protokoll&lt;/a&gt;" style="rounded=1;whiteSpace=wrap;html=1;fontSize=16;" parent="1" vertex="1">
                    <mxGeometry x="610" y="280" width="290" height="60" as="geometry"/>
                </mxCell>
                <mxCell id="17" value="512 char limit for msg&lt;br&gt;-you can only type. 401 chars in a msg" style="rounded=1;whiteSpace=wrap;html=1;" parent="1" vertex="1">
                    <mxGeometry x="65" y="520" width="350" height="60" as="geometry"/>
                </mxCell>
                <mxCell id="20" value="&lt;a href=&quot;https://www.rfc-editor.org/rfc/rfc1459#section-4.2.3.1&quot;&gt;IRC_DOC&lt;/a&gt;" style="rounded=1;whiteSpace=wrap;html=1;" parent="1" vertex="1">
                    <mxGeometry x="90" y="270" width="120" height="60" as="geometry"/>
                </mxCell>
                <mxCell id="21" value="" style="endArrow=classic;html=1;" parent="1" source="10" target="20" edge="1">
                    <mxGeometry width="50" height="50" relative="1" as="geometry">
                        <mxPoint x="290" y="330" as="sourcePoint"/>
                        <mxPoint x="340" y="280" as="targetPoint"/>
                    </mxGeometry>
                </mxCell>
                <mxCell id="22" value="&lt;a href=&quot;https://en.wikipedia.org/wiki/Backus%E2%80%93Naur_form&quot;&gt;BNF Concept for the mdg class&lt;/a&gt;" style="rounded=1;whiteSpace=wrap;html=1;" parent="1" vertex="1">
                    <mxGeometry x="90" y="400" width="120" height="60" as="geometry"/>
                </mxCell>
                <mxCell id="23" value="" style="endArrow=classic;html=1;" parent="1" source="10" target="22" edge="1">
                    <mxGeometry width="50" height="50" relative="1" as="geometry">
                        <mxPoint x="340" y="380" as="sourcePoint"/>
                        <mxPoint x="450" y="320" as="targetPoint"/>
                    </mxGeometry>
                </mxCell>
                <mxCell id="24" value="" style="endArrow=classic;html=1;" parent="1" source="22" target="25" edge="1">
                    <mxGeometry width="50" height="50" relative="1" as="geometry">
                        <mxPoint x="160" y="370" as="sourcePoint"/>
                        <mxPoint x="40" y="420" as="targetPoint"/>
                    </mxGeometry>
                </mxCell>
                <mxCell id="25" value="&lt;pre class=&quot;newpage&quot;&gt;   The protocol messages must be extracted from the contiguous stream of&lt;br&gt;   octets.  The current solution is to designate two characters, CR and&lt;br&gt;   LF, as message separators.   Empty  messages  are  silently  ignored,&lt;br&gt;   which permits  use  of  the  sequence  CR-LF  between  messages&lt;br&gt;   without extra problems.&lt;br&gt;&lt;br&gt;   The extracted message is parsed into the components &amp;lt;prefix&amp;gt;,&lt;br&gt;   &amp;lt;command&amp;gt; and list of parameters matched either by &amp;lt;middle&amp;gt; or&lt;br&gt;   &amp;lt;trailing&amp;gt; components.&lt;br&gt;&lt;br&gt;   The BNF representation for this is:&lt;br&gt;&lt;br&gt;&lt;br&gt;&amp;lt;message&amp;gt;  ::= [':' &amp;lt;prefix&amp;gt; &amp;lt;SPACE&amp;gt; ] &amp;lt;command&amp;gt; &amp;lt;params&amp;gt; &amp;lt;crlf&amp;gt;&lt;br&gt;&amp;lt;prefix&amp;gt;   ::= &amp;lt;servername&amp;gt; | &amp;lt;nick&amp;gt; [ '!' &amp;lt;user&amp;gt; ] [ '@' &amp;lt;host&amp;gt; ]&lt;br&gt;&amp;lt;command&amp;gt;  ::= &amp;lt;letter&amp;gt; { &amp;lt;letter&amp;gt; } | &amp;lt;number&amp;gt; &amp;lt;number&amp;gt; &amp;lt;number&amp;gt;&lt;br&gt;&amp;lt;SPACE&amp;gt;    ::= ' ' { ' ' }&lt;br&gt;&amp;lt;params&amp;gt;   ::= &amp;lt;SPACE&amp;gt; [ ':' &amp;lt;trailing&amp;gt; | &amp;lt;middle&amp;gt; &amp;lt;params&amp;gt; ]&lt;br&gt;&lt;br&gt;&amp;lt;middle&amp;gt;   ::= &amp;lt;Any *non-empty* sequence of octets not including SPACE&lt;br&gt;               or NUL or CR or LF, the first of which may not be ':'&amp;gt;&lt;br&gt;&amp;lt;trailing&amp;gt; ::= &amp;lt;Any, possibly *empty*, sequence of octets not including&lt;br&gt;                 NUL or CR or LF&amp;gt;&lt;br&gt;&lt;br&gt;&amp;lt;crlf&amp;gt;     ::= CR LF&lt;br&gt;&lt;br&gt;&lt;/pre&gt;&lt;pre class=&quot;newpage&quot;&gt;NOTES:&lt;br&gt;&lt;br&gt;  1)    &amp;lt;SPACE&amp;gt; is consists only of SPACE character(s) (0x20).&lt;br&gt;        Specially notice that TABULATION, and all other control&lt;br&gt;        characters are considered NON-WHITE-SPACE.&lt;br&gt;&lt;br&gt;  2)    After extracting the parameter list, all parameters are equal,&lt;br&gt;        whether matched by &amp;lt;middle&amp;gt; or &amp;lt;trailing&amp;gt;. &amp;lt;Trailing&amp;gt; is just&lt;br&gt;        a syntactic trick to allow SPACE within parameter.&lt;br&gt;&lt;br&gt;  3)    The fact that CR and LF cannot appear in parameter strings is&lt;br&gt;        just artifact of the message framing. This might change later.&lt;br&gt;&lt;br&gt;  4)    The NUL character is not special in message framing, and&lt;br&gt;        basically could end up inside a parameter, but as it would&lt;br&gt;        cause extra complexities in normal C string handling. Therefore&lt;br&gt;        NUL is not allowed within messages.&lt;br&gt;&lt;br&gt;  5)    The last parameter may be an empty string.&lt;br&gt;&lt;br&gt;  6)    Use of the extended prefix (['!' &amp;lt;user&amp;gt; ] ['@' &amp;lt;host&amp;gt; ]) must&lt;br&gt;        not be used in server to server communications and is only&lt;br&gt;        intended for server to client messages in order to provide&lt;br&gt;        clients with more useful information about who a message is&lt;br&gt;        from without the need for additional queries.&lt;br&gt;&lt;br&gt;   Most protocol messages specify additional semantics and syntax for&lt;br&gt;   the extracted parameter strings dictated by their position in the&lt;br&gt;   list.  For example, many server commands will assume that the first&lt;br&gt;   parameter after the command is the list of targets, which can be&lt;br&gt;   described with:&lt;br&gt;&lt;br&gt;   &amp;lt;target&amp;gt;     ::= &amp;lt;to&amp;gt; [ &quot;,&quot; &amp;lt;target&amp;gt; ]&lt;br&gt;   &amp;lt;to&amp;gt;         ::= &amp;lt;channel&amp;gt; | &amp;lt;user&amp;gt; '@' &amp;lt;servername&amp;gt; | &amp;lt;nick&amp;gt; | &amp;lt;mask&amp;gt;&lt;br&gt;   &amp;lt;channel&amp;gt;    ::= ('#' | '&amp;amp;') &amp;lt;chstring&amp;gt;&lt;br&gt;   &amp;lt;servername&amp;gt; ::= &amp;lt;host&amp;gt;&lt;br&gt;   &amp;lt;host&amp;gt;       ::= see &lt;a href=&quot;https://www.rfc-editor.org/rfc/rfc952&quot;&gt;RFC 952&lt;/a&gt; [DNS:4] for details on allowed hostnames&lt;br&gt;   &amp;lt;nick&amp;gt;       ::= &amp;lt;letter&amp;gt; { &amp;lt;letter&amp;gt; | &amp;lt;number&amp;gt; | &amp;lt;special&amp;gt; }&lt;br&gt;   &amp;lt;mask&amp;gt;       ::= ('#' | '$') &amp;lt;chstring&amp;gt;&lt;br&gt;   &amp;lt;chstring&amp;gt;   ::= &amp;lt;any 8bit code except SPACE, BELL, NUL, CR, LF and&lt;br&gt;                     comma (',')&amp;gt;&lt;br&gt;&lt;br&gt;   Other parameter syntaxes are:&lt;br&gt;&lt;br&gt;   &amp;lt;user&amp;gt;       ::= &amp;lt;nonwhite&amp;gt; { &amp;lt;nonwhite&amp;gt; }&lt;br&gt;   &amp;lt;letter&amp;gt;     ::= 'a' ... 'z' | 'A' ... 'Z'&lt;br&gt;   &amp;lt;number&amp;gt;     ::= '0' ... '9'&lt;br&gt;   &amp;lt;special&amp;gt;    ::= '-' | '[' | ']' | '\' | '`' | '^' | '{' | '}'&lt;br&gt;   &amp;lt;nonwhite&amp;gt;   ::= &amp;lt;any 8bit code except SPACE (0x20), NUL (0x0), CR(0xd), and LF (0xa)&amp;gt;&lt;/pre&gt;" style="text;whiteSpace=wrap;html=1;strokeColor=default;fillColor=default;" parent="1" vertex="1">
                    <mxGeometry x="-720" y="-150" width="720" height="1140" as="geometry"/>
                </mxCell>
                <mxCell id="26" value="" style="endArrow=classic;html=1;exitX=0;exitY=0.5;exitDx=0;exitDy=0;" parent="1" source="20" target="25" edge="1">
                    <mxGeometry width="50" height="50" relative="1" as="geometry">
                        <mxPoint x="-60" y="390" as="sourcePoint"/>
                        <mxPoint x="-10" y="340" as="targetPoint"/>
                    </mxGeometry>
                </mxCell>
                <mxCell id="27" value="Bugs" style="swimlane;fontStyle=0;childLayout=stackLayout;horizontal=1;startSize=30;horizontalStack=0;resizeParent=1;resizeParentMax=0;resizeLast=0;collapsible=1;marginBottom=0;whiteSpace=wrap;html=1;" parent="1" vertex="1">
                    <mxGeometry x="950" y="410" width="140" height="120" as="geometry"/>
                </mxCell>
                <mxCell id="28" value="After 2 clients disconnect the server shuts down" style="text;strokeColor=none;fillColor=none;align=left;verticalAlign=middle;spacingLeft=4;spacingRight=4;overflow=hidden;points=[[0,0.5],[1,0.5]];portConstraint=eastwest;rotatable=0;whiteSpace=wrap;html=1;" parent="27" vertex="1">
                    <mxGeometry y="30" width="140" height="30" as="geometry"/>
                </mxCell>
                <mxCell id="29" value="Item 2" style="text;strokeColor=none;fillColor=none;align=left;verticalAlign=middle;spacingLeft=4;spacingRight=4;overflow=hidden;points=[[0,0.5],[1,0.5]];portConstraint=eastwest;rotatable=0;whiteSpace=wrap;html=1;" parent="27" vertex="1">
                    <mxGeometry y="60" width="140" height="30" as="geometry"/>
                </mxCell>
                <mxCell id="30" value="Item 3" style="text;strokeColor=none;fillColor=none;align=left;verticalAlign=middle;spacingLeft=4;spacingRight=4;overflow=hidden;points=[[0,0.5],[1,0.5]];portConstraint=eastwest;rotatable=0;whiteSpace=wrap;html=1;" parent="27" vertex="1">
                    <mxGeometry y="90" width="140" height="30" as="geometry"/>
                </mxCell>
                <mxCell id="32" value="connected 3 clients with nc quit 2 of them with ctrl c .&amp;nbsp;" style="rounded=1;whiteSpace=wrap;html=1;" parent="1" vertex="1">
                    <mxGeometry x="1240" y="425" width="120" height="60" as="geometry"/>
                </mxCell>
                <mxCell id="33" value="" style="shape=flexArrow;endArrow=classic;html=1;exitX=1;exitY=0.5;exitDx=0;exitDy=0;entryX=0;entryY=0.5;entryDx=0;entryDy=0;" parent="1" source="28" target="32" edge="1">
                    <mxGeometry width="50" height="50" relative="1" as="geometry">
                        <mxPoint x="1150" y="470" as="sourcePoint"/>
                        <mxPoint x="1200" y="420" as="targetPoint"/>
                    </mxGeometry>
                </mxCell>
                <mxCell id="34" value="current connections 0&#10;Client connected!using the fd =4&#10;current connections 1&#10;Client connected!using the fd =5&#10;current connections 2&#10;Client connected!using the fd =6&#10;current connections 3&#10; Closing this fd = 4&#10;current connections 2&#10; Closing this fd = 6&#10;basic_string" style="text;whiteSpace=wrap;html=1;fillColor=default;strokeColor=default;" parent="1" vertex="1">
                    <mxGeometry x="1440" y="400" width="210" height="180" as="geometry"/>
                </mxCell>
                <mxCell id="35" value="Server terminal&amp;nbsp;" style="text;html=1;strokeColor=default;fillColor=none;align=center;verticalAlign=middle;whiteSpace=wrap;rounded=0;" parent="1" vertex="1">
                    <mxGeometry x="1440" y="370" width="210" height="30" as="geometry"/>
                </mxCell>
                <mxCell id="36" value="" style="shape=flexArrow;endArrow=classic;html=1;" parent="1" source="32" target="34" edge="1">
                    <mxGeometry width="50" height="50" relative="1" as="geometry">
                        <mxPoint x="1360" y="450" as="sourcePoint"/>
                        <mxPoint x="1410" y="400" as="targetPoint"/>
                    </mxGeometry>
                </mxCell>
                <mxCell id="37" value="&lt;meta charset=&quot;utf-8&quot;&gt;&lt;div style=&quot;color: rgb(212, 212, 212); background-color: rgb(30, 30, 30); font-family: Menlo, Monaco, &amp;quot;Courier New&amp;quot;, monospace; font-weight: normal; font-size: 12px; line-height: 18px;&quot;&gt;&lt;div&gt;&lt;span style=&quot;color: #569cd6;&quot;&gt;oid&lt;/span&gt;&lt;span style=&quot;color: #d4d4d4;&quot;&gt; &lt;/span&gt;&lt;span style=&quot;color: #4ec9b0;&quot;&gt;Server&lt;/span&gt;&lt;span style=&quot;color: #d4d4d4;&quot;&gt;::&lt;/span&gt;&lt;span style=&quot;color: #dcdcaa;&quot;&gt;pass_command&lt;/span&gt;&lt;span style=&quot;color: #d4d4d4;&quot;&gt;(&lt;/span&gt;&lt;span style=&quot;color: #4ec9b0;&quot;&gt;Request&lt;/span&gt;&lt;span style=&quot;color: #d4d4d4;&quot;&gt; &lt;/span&gt;&lt;span style=&quot;color: #9cdcfe;&quot;&gt;request&lt;/span&gt;&lt;span style=&quot;color: #d4d4d4;&quot;&gt;)&lt;/span&gt;&lt;/div&gt;&lt;div&gt;&lt;span style=&quot;color: #d4d4d4;&quot;&gt;{&lt;/span&gt;&lt;/div&gt;&lt;div&gt;&lt;span style=&quot;color: #d4d4d4;&quot;&gt;    &lt;/span&gt;&lt;span style=&quot;color: #4ec9b0;&quot;&gt;std&lt;/span&gt;&lt;span style=&quot;color: #d4d4d4;&quot;&gt;::string &lt;/span&gt;&lt;span style=&quot;color: #dcdcaa;&quot;&gt;response&lt;/span&gt;&lt;span style=&quot;color: #d4d4d4;&quot;&gt;(SERVER_NAME);&lt;/span&gt;&lt;/div&gt;&lt;div&gt;&lt;span style=&quot;color: #d4d4d4;&quot;&gt;    User        *user = &lt;/span&gt;&lt;span style=&quot;color: #9cdcfe;&quot;&gt;request&lt;/span&gt;&lt;span style=&quot;color: #d4d4d4;&quot;&gt;.&lt;/span&gt;&lt;span style=&quot;color: #dcdcaa;&quot;&gt;get_user&lt;/span&gt;&lt;span style=&quot;color: #d4d4d4;&quot;&gt;();&lt;/span&gt;&lt;/div&gt;&lt;br&gt;&lt;div&gt;&lt;span style=&quot;color: #6a9955;&quot;&gt;    // ERR_ALREADYREGISTRED&lt;/span&gt;&lt;/div&gt;&lt;div&gt;&lt;span style=&quot;color: #d4d4d4;&quot;&gt;    &lt;/span&gt;&lt;span style=&quot;color: #c586c0;&quot;&gt;if&lt;/span&gt;&lt;span style=&quot;color: #d4d4d4;&quot;&gt; (&lt;/span&gt;&lt;span style=&quot;color: #9cdcfe;&quot;&gt;user&lt;/span&gt;&lt;span style=&quot;color: #d4d4d4;&quot;&gt;-&amp;gt;&lt;/span&gt;&lt;span style=&quot;color: #dcdcaa;&quot;&gt;is_registered&lt;/span&gt;&lt;span style=&quot;color: #d4d4d4;&quot;&gt;())&lt;/span&gt;&lt;/div&gt;&lt;div&gt;&lt;span style=&quot;color: #d4d4d4;&quot;&gt;        &lt;/span&gt;&lt;span style=&quot;color: #9cdcfe;&quot;&gt;response&lt;/span&gt;&lt;span style=&quot;color: #d4d4d4;&quot;&gt;.&lt;/span&gt;&lt;span style=&quot;color: #dcdcaa;&quot;&gt;append&lt;/span&gt;&lt;span style=&quot;color: #d4d4d4;&quot;&gt;(SERVER_NAME &lt;/span&gt;&lt;span style=&quot;color: #ce9178;&quot;&gt;&quot; 462 &quot;&lt;/span&gt;&lt;span style=&quot;color: #d4d4d4;&quot;&gt; + &lt;/span&gt;&lt;span style=&quot;color: #9cdcfe;&quot;&gt;user&lt;/span&gt;&lt;span style=&quot;color: #d4d4d4;&quot;&gt;-&amp;gt;&lt;/span&gt;&lt;span style=&quot;color: #dcdcaa;&quot;&gt;get_nickname&lt;/span&gt;&lt;span style=&quot;color: #d4d4d4;&quot;&gt;() + &lt;/span&gt;&lt;span style=&quot;color: #ce9178;&quot;&gt;&quot; :Unauthorized command (already registered)&quot;&lt;/span&gt;&lt;span style=&quot;color: #d4d4d4;&quot;&gt;);&lt;/span&gt;&lt;/div&gt;&lt;br&gt;&lt;div&gt;&lt;span style=&quot;color: #6a9955;&quot;&gt;    // ERR_NEEDMOREPARAMS&lt;/span&gt;&lt;/div&gt;&lt;div&gt;&lt;span style=&quot;color: #d4d4d4;&quot;&gt;    &lt;/span&gt;&lt;span style=&quot;color: #c586c0;&quot;&gt;else&lt;/span&gt;&lt;span style=&quot;color: #d4d4d4;&quot;&gt; &lt;/span&gt;&lt;span style=&quot;color: #c586c0;&quot;&gt;if&lt;/span&gt;&lt;span style=&quot;color: #d4d4d4;&quot;&gt; (&lt;/span&gt;&lt;span style=&quot;color: #9cdcfe;&quot;&gt;request&lt;/span&gt;&lt;span style=&quot;color: #d4d4d4;&quot;&gt;.&lt;/span&gt;&lt;span style=&quot;color: #dcdcaa;&quot;&gt;get_params&lt;/span&gt;&lt;span style=&quot;color: #d4d4d4;&quot;&gt;().&lt;/span&gt;&lt;span style=&quot;color: #dcdcaa;&quot;&gt;size&lt;/span&gt;&lt;span style=&quot;color: #d4d4d4;&quot;&gt;() != &lt;/span&gt;&lt;span style=&quot;color: #b5cea8;&quot;&gt;1&lt;/span&gt;&lt;span style=&quot;color: #d4d4d4;&quot;&gt;)&lt;/span&gt;&lt;/div&gt;&lt;div&gt;&lt;span style=&quot;color: #d4d4d4;&quot;&gt;        &lt;/span&gt;&lt;span style=&quot;color: #9cdcfe;&quot;&gt;response&lt;/span&gt;&lt;span style=&quot;color: #d4d4d4;&quot;&gt;.&lt;/span&gt;&lt;span style=&quot;color: #dcdcaa;&quot;&gt;append&lt;/span&gt;&lt;span style=&quot;color: #d4d4d4;&quot;&gt;(SERVER_NAME &lt;/span&gt;&lt;span style=&quot;color: #ce9178;&quot;&gt;&quot; 461 &quot;&lt;/span&gt;&lt;span style=&quot;color: #d4d4d4;&quot;&gt; + &lt;/span&gt;&lt;span style=&quot;color: #9cdcfe;&quot;&gt;user&lt;/span&gt;&lt;span style=&quot;color: #d4d4d4;&quot;&gt;-&amp;gt;&lt;/span&gt;&lt;span style=&quot;color: #dcdcaa;&quot;&gt;get_nickname&lt;/span&gt;&lt;span style=&quot;color: #d4d4d4;&quot;&gt;() + &lt;/span&gt;&lt;span style=&quot;color: #ce9178;&quot;&gt;&quot; PASS :Not the right amount of parameters&quot;&lt;/span&gt;&lt;span style=&quot;color: #d4d4d4;&quot;&gt;);&lt;/span&gt;&lt;/div&gt;&lt;br&gt;&lt;div&gt;&lt;span style=&quot;color: #6a9955;&quot;&gt;    // ERR_PASSWDMISMATCH &lt;/span&gt;&lt;/div&gt;&lt;div&gt;&lt;span style=&quot;color: #d4d4d4;&quot;&gt;    &lt;/span&gt;&lt;span style=&quot;color: #c586c0;&quot;&gt;else&lt;/span&gt;&lt;span style=&quot;color: #d4d4d4;&quot;&gt; &lt;/span&gt;&lt;span style=&quot;color: #c586c0;&quot;&gt;if&lt;/span&gt;&lt;span style=&quot;color: #d4d4d4;&quot;&gt; (&lt;/span&gt;&lt;span style=&quot;color: #9cdcfe;&quot;&gt;request&lt;/span&gt;&lt;span style=&quot;color: #d4d4d4;&quot;&gt;.&lt;/span&gt;&lt;span style=&quot;color: #dcdcaa;&quot;&gt;get_params&lt;/span&gt;&lt;span style=&quot;color: #d4d4d4;&quot;&gt;()[&lt;/span&gt;&lt;span style=&quot;color: #b5cea8;&quot;&gt;0&lt;/span&gt;&lt;span style=&quot;color: #d4d4d4;&quot;&gt;] != _password)&lt;/span&gt;&lt;/div&gt;&lt;div&gt;&lt;span style=&quot;color: #d4d4d4;&quot;&gt;    {&lt;/span&gt;&lt;/div&gt;&lt;div&gt;&lt;span style=&quot;color: #d4d4d4;&quot;&gt;        &lt;/span&gt;&lt;span style=&quot;color: #9cdcfe;&quot;&gt;response&lt;/span&gt;&lt;span style=&quot;color: #d4d4d4;&quot;&gt;.&lt;/span&gt;&lt;span style=&quot;color: #dcdcaa;&quot;&gt;append&lt;/span&gt;&lt;span style=&quot;color: #d4d4d4;&quot;&gt;(SERVER_NAME &lt;/span&gt;&lt;span style=&quot;color: #ce9178;&quot;&gt;&quot; 464 &quot;&lt;/span&gt;&lt;span style=&quot;color: #d4d4d4;&quot;&gt; + &lt;/span&gt;&lt;span style=&quot;color: #9cdcfe;&quot;&gt;user&lt;/span&gt;&lt;span style=&quot;color: #d4d4d4;&quot;&gt;-&amp;gt;&lt;/span&gt;&lt;span style=&quot;color: #dcdcaa;&quot;&gt;get_nickname&lt;/span&gt;&lt;span style=&quot;color: #d4d4d4;&quot;&gt;() + &lt;/span&gt;&lt;span style=&quot;color: #ce9178;&quot;&gt;&quot; :Password incorrect&quot;&lt;/span&gt;&lt;span style=&quot;color: #d4d4d4;&quot;&gt;);&lt;/span&gt;&lt;/div&gt;&lt;div&gt;&lt;span style=&quot;color: #d4d4d4;&quot;&gt;        &lt;/span&gt;&lt;span style=&quot;color: #9cdcfe;&quot;&gt;user&lt;/span&gt;&lt;span style=&quot;color: #d4d4d4;&quot;&gt;-&amp;gt;&lt;/span&gt;&lt;span style=&quot;color: #dcdcaa;&quot;&gt;set_pass_provided&lt;/span&gt;&lt;span style=&quot;color: #d4d4d4;&quot;&gt;(&lt;/span&gt;&lt;span style=&quot;color: #569cd6;&quot;&gt;false&lt;/span&gt;&lt;span style=&quot;color: #d4d4d4;&quot;&gt;);&lt;/span&gt;&lt;/div&gt;&lt;div&gt;&lt;span style=&quot;color: #d4d4d4;&quot;&gt;    }&lt;/span&gt;&lt;/div&gt;&lt;br&gt;&lt;div&gt;&lt;span style=&quot;color: #d4d4d4;&quot;&gt;    &lt;/span&gt;&lt;span style=&quot;color: #c586c0;&quot;&gt;else&lt;/span&gt;&lt;/div&gt;&lt;div&gt;&lt;span style=&quot;color: #d4d4d4;&quot;&gt;    {&lt;/span&gt;&lt;/div&gt;&lt;div&gt;&lt;span style=&quot;color: #d4d4d4;&quot;&gt;        &lt;/span&gt;&lt;span style=&quot;color: #9cdcfe;&quot;&gt;user&lt;/span&gt;&lt;span style=&quot;color: #d4d4d4;&quot;&gt;-&amp;gt;&lt;/span&gt;&lt;span style=&quot;color: #dcdcaa;&quot;&gt;set_pass_provided&lt;/span&gt;&lt;span style=&quot;color: #d4d4d4;&quot;&gt;(&lt;/span&gt;&lt;span style=&quot;color: #569cd6;&quot;&gt;true&lt;/span&gt;&lt;span style=&quot;color: #d4d4d4;&quot;&gt;);&lt;/span&gt;&lt;/div&gt;&lt;div&gt;&lt;span style=&quot;color: #d4d4d4;&quot;&gt;        &lt;/span&gt;&lt;span style=&quot;color: #c586c0;&quot;&gt;return&lt;/span&gt;&lt;span style=&quot;color: #d4d4d4;&quot;&gt;;&lt;/span&gt;&lt;/div&gt;&lt;div&gt;&lt;span style=&quot;color: #d4d4d4;&quot;&gt;    }&lt;/span&gt;&lt;/div&gt;&lt;div&gt;&lt;span style=&quot;color: #d4d4d4;&quot;&gt;    &lt;/span&gt;&lt;/div&gt;&lt;div&gt;&lt;span style=&quot;color: #d4d4d4;&quot;&gt;    &lt;/span&gt;&lt;span style=&quot;color: #dcdcaa;&quot;&gt;send_message&lt;/span&gt;&lt;span style=&quot;color: #d4d4d4;&quot;&gt;(response, &lt;/span&gt;&lt;span style=&quot;color: #9cdcfe;&quot;&gt;user&lt;/span&gt;&lt;span style=&quot;color: #d4d4d4;&quot;&gt;-&amp;gt;&lt;/span&gt;&lt;span style=&quot;color: #dcdcaa;&quot;&gt;get_fd&lt;/span&gt;&lt;span style=&quot;color: #d4d4d4;&quot;&gt;());&lt;/span&gt;&lt;/div&gt;&lt;div&gt;&lt;span style=&quot;color: #d4d4d4;&quot;&gt;}&lt;/span&gt;&lt;/div&gt;&lt;br&gt;&lt;/div&gt;" style="text;whiteSpace=wrap;html=1;" vertex="1" parent="1">
                    <mxGeometry x="80" y="680" width="560" height="580" as="geometry"/>
                </mxCell>
            </root>
        </mxGraphModel>
    </diagram>
</mxfile>